<svg width="79" height="65" viewBox="0 0 79 65" fill="none" xmlns="http://www.w3.org/2000/svg">
<path d="M0.462472 59.1513L13.9027 28.643V14.5428C13.9027 13.489 13.641 12.7618 13.1177 12.3614C12.6152 11.9399 11.715 11.4446 10.417 10.8755C9.97741 10.6647 9.72619 10.3591 9.66339 9.95866C9.60058 9.5582 9.71573 9.17883 10.0088 8.82053L16.6347 1.20136C17.3465 0.400454 17.9641 0 18.4875 0C18.948 0 19.3144 0.147536 19.5866 0.442607C19.8587 0.716602 19.9948 1.08544 19.9948 1.54912C19.9948 2.07604 19.7959 3.51978 19.3981 5.88035C19.0213 8.21984 18.8329 11.1073 18.8329 14.5428V28.643L32.2732 59.1513C32.6709 60.0154 32.8279 60.9006 32.7442 61.8069C32.6605 62.7132 32.3046 63.4614 31.6765 64.0516C31.0694 64.6628 30.1587 64.9684 28.9445 64.9684C28.3164 64.9684 27.7093 64.8208 27.1232 64.5258C26.537 64.2518 25.8461 63.7776 25.0506 63.1031L17.043 56.4008C16.7917 56.19 16.5615 56.0846 16.3521 56.0846C16.1846 56.0846 15.9753 56.19 15.7241 56.4008L7.71644 63.1031C6.92091 63.7776 6.23006 64.2518 5.64388 64.5258C5.0577 64.8208 4.44012 64.9684 3.79113 64.9684C2.59784 64.9684 1.69764 64.6628 1.09052 64.0516C0.483407 63.4614 0.127513 62.7132 0.0228381 61.8069C-0.0609017 60.9006 0.0856431 60.0154 0.462472 59.1513ZM23.3549 53.7135C23.7736 53.7135 24.1399 53.5554 24.4539 53.2393C24.7889 52.9232 24.9564 52.5438 24.9564 52.1012C24.9564 51.6586 24.7994 51.2792 24.4853 50.963C24.1713 50.6258 23.7945 50.4572 23.3549 50.4572C22.9362 50.4572 22.5593 50.6258 22.2244 50.963C21.9103 51.2792 21.7533 51.6586 21.7533 52.1012C21.7533 52.5438 21.9103 52.9232 22.2244 53.2393C22.5384 53.5554 22.9152 53.7135 23.3549 53.7135ZM21.5963 49.6668C22.036 49.6668 22.4233 49.5088 22.7582 49.1926C23.0932 48.8554 23.2607 48.476 23.2607 48.0545C23.2607 47.5908 23.0932 47.2009 22.7582 46.8847C22.4233 46.5475 22.036 46.3789 21.5963 46.3789C21.1567 46.3789 20.7799 46.5475 20.4658 46.8847C20.1518 47.222 19.9948 47.6119 19.9948 48.0545C19.9948 48.476 20.1518 48.8554 20.4658 49.1926C20.7799 49.5088 21.1567 49.6668 21.5963 49.6668ZM19.9006 45.5885C20.3193 45.5885 20.6856 45.4304 20.9997 45.1143C21.3137 44.7982 21.4707 44.4188 21.4707 43.9762C21.4707 43.5336 21.3137 43.1542 20.9997 42.838C20.6856 42.5008 20.3193 42.3322 19.9006 42.3322C19.44 42.3322 19.0527 42.5008 18.7387 42.838C18.4247 43.1542 18.2677 43.5336 18.2677 43.9762C18.2677 44.4188 18.4247 44.7982 18.7387 45.1143C19.0527 45.4304 19.44 45.5885 19.9006 45.5885ZM41.0344 65C39.8621 65 38.7421 64.9052 37.6744 64.7155C36.6067 64.5258 35.5809 64.2202 34.5969 63.7986C34.911 63.082 35.068 62.3127 35.068 61.4908C35.068 60.8163 34.9738 60.1419 34.7854 59.4674C34.6179 58.814 34.3248 58.0131 33.9061 57.0647L29.0701 46.0944C29.5307 45.167 29.9703 44.3872 30.389 43.7549C30.8077 43.1015 31.0171 42.5113 31.0171 41.9844C31.0171 41.1414 30.8391 40.3615 30.4832 39.6449C30.1483 38.9073 29.8028 38.138 29.4469 37.3371C29.112 36.5362 28.9445 35.6193 28.9445 34.5866C28.9445 33.4274 29.3004 32.4895 30.0122 31.7729C30.724 31.0352 31.6242 30.6663 32.7128 30.6663C33.5711 30.6663 34.2724 30.8771 34.8168 31.2986C35.382 31.6991 35.853 32.1312 36.2299 32.5948C36.5439 32.9531 36.8265 33.2693 37.0777 33.5433C37.3289 33.8173 37.5697 33.9543 37.8 33.9543C37.9884 33.9543 38.1454 33.8594 38.271 33.6697C38.3966 33.4801 38.4804 33.2271 38.5222 32.911C38.585 32.5948 38.6164 32.2471 38.6164 31.8677L38.585 13.2466C38.585 12.8461 38.5432 12.5932 38.4594 12.4878C38.3966 12.3614 38.2606 12.256 38.0512 12.1717C37.465 11.9399 37.1301 11.434 37.0463 10.6542L36.4497 4.39446C36.4287 3.76216 36.659 3.22471 37.1405 2.7821L39.7155 0.537451C40.0924 0.17915 40.532 0 41.0344 0C41.5159 0 41.9451 0.17915 42.3219 0.537451L44.8969 2.7821C45.3994 3.22471 45.6297 3.76216 45.5878 4.39446L44.9911 10.6542C44.9493 11.0546 44.8551 11.3708 44.7085 11.6026C44.5829 11.8345 44.3526 12.0242 44.0177 12.1717C43.7665 12.256 43.6094 12.3614 43.5466 12.4878C43.5048 12.6143 43.4838 12.8672 43.4838 13.2466L43.4524 31.8993C43.4524 32.1944 43.4734 32.5 43.5152 32.8161C43.5571 33.1323 43.6304 33.3958 43.735 33.6065C43.8607 33.8173 44.0386 33.9227 44.2689 33.9227C44.4992 33.9227 44.7399 33.7962 44.9911 33.5433C45.2424 33.2904 45.5145 32.9742 45.8076 32.5948C46.1844 32.1312 46.645 31.6886 47.1893 31.267C47.7546 30.8455 48.4768 30.6347 49.3561 30.6347C50.4656 30.6347 51.3658 31.0036 52.0567 31.7412C52.7476 32.4789 53.093 33.4274 53.093 34.5866C53.093 35.6193 52.9255 36.5362 52.5905 37.3371C52.2556 38.138 51.9102 38.9073 51.5543 39.6449C51.2193 40.3615 51.0518 41.1308 51.0518 41.9528C51.0518 42.5008 51.2298 43.0804 51.5857 43.6916C51.9625 44.2818 52.3917 44.9878 52.8732 45.8098C53.3756 46.6107 53.8152 47.5697 54.1921 48.6868C54.5689 49.8038 54.7573 51.1316 54.7573 52.6702C54.7573 55.1362 54.1816 57.2965 53.0302 59.1513C51.8787 61.006 50.2772 62.4392 48.2256 63.4509C46.174 64.4836 43.7769 65 41.0344 65ZM34.4713 52.1644C34.8482 52.3119 35.2145 52.3014 35.5704 52.1328C35.9263 51.9431 36.1671 51.6586 36.2927 51.2792L38.585 44.5136C38.7316 44.1553 38.7107 43.797 38.5222 43.4387C38.3338 43.0593 38.0617 42.817 37.7058 42.7116C37.3499 42.564 36.994 42.5851 36.6381 42.7748C36.2822 42.9434 36.031 43.2174 35.8844 43.5968L33.5921 50.394C33.4664 50.7523 33.4874 51.1106 33.6549 51.4689C33.8433 51.8272 34.1154 52.059 34.4713 52.1644ZM47.5347 52.1644C47.9116 52.0801 48.1837 51.8588 48.3512 51.5005C48.5396 51.1211 48.5815 50.7523 48.4768 50.394L46.153 43.5968C46.0274 43.2385 45.7867 42.975 45.4308 42.8064C45.0958 42.6167 44.7399 42.5851 44.3631 42.7116C44.0072 42.7959 43.735 43.0277 43.5466 43.4071C43.3582 43.7654 43.3268 44.1342 43.4524 44.5136L45.7448 51.2792C45.8704 51.6375 46.1112 51.9115 46.4671 52.1012C46.823 52.2698 47.1788 52.2909 47.5347 52.1644ZM65.3085 64.8735C62.9429 64.8735 60.8389 64.5574 58.9966 63.9251C57.1544 63.3139 55.6366 62.4181 54.4433 61.2378C56.2018 58.793 57.0811 55.9371 57.0811 52.6702C57.0811 51.0263 56.8717 49.572 56.453 48.3074C56.0553 47.0428 55.6261 45.9784 55.1655 45.1143C55.2911 44.8825 55.3958 44.6612 55.4796 44.4504C55.5633 44.2396 55.6052 44.0078 55.6052 43.7549C55.6052 42.8275 55.4586 41.8896 55.1655 40.9411C54.8724 39.9927 54.7259 38.9073 54.7259 37.6848C54.7259 35.5982 55.4482 33.9016 56.8927 32.5948C58.3372 31.267 60.326 30.4345 62.8591 30.0973V12.0452C62.8591 11.4551 62.8068 11.0441 62.7021 10.8123C62.5975 10.5593 62.3776 10.3064 62.0427 10.0535C61.4565 9.67412 61.1739 9.21044 61.1948 8.66245L61.6658 1.20136C61.6868 0.843061 61.8019 0.558528 62.0113 0.347763C62.2416 0.115921 62.5137 0 62.8277 0H67.7579C68.0929 0 68.365 0.115921 68.5744 0.347763C68.8047 0.558528 68.9303 0.843061 68.9512 1.20136L69.4222 8.66245C69.4641 9.21044 69.1815 9.67412 68.5744 10.0535C68.2394 10.3064 68.0196 10.5488 67.9149 10.7806C67.8103 11.0125 67.7579 11.434 67.7579 12.0452V30.0973C70.312 30.4345 72.3008 31.267 73.7244 32.5948C75.148 33.9016 75.8598 35.5982 75.8598 37.6848C75.8598 39.0126 75.7132 40.1719 75.4201 41.1624C75.127 42.132 74.9805 43.1015 74.9805 44.071C74.9805 44.7665 75.1794 45.4094 75.5771 45.9995C75.9958 46.5897 76.4669 47.243 76.9902 47.9596C77.5136 48.6552 77.9742 49.5193 78.3719 50.552C78.7906 51.5848 79 52.881 79 54.4407C79 57.6232 77.7648 60.1524 75.2945 62.0282C72.8242 63.9251 69.4955 64.8735 65.3085 64.8735ZM65.3399 46.6318C66.2611 46.6318 67.0566 46.3051 67.7265 45.6518C68.3964 44.9773 68.7314 44.1659 68.7314 43.2174C68.7314 42.2479 68.3964 41.4259 67.7265 40.7515C67.0566 40.077 66.2611 39.7398 65.3399 39.7398C64.3769 39.7398 63.55 40.077 62.8591 40.7515C62.1892 41.4259 61.8543 42.2479 61.8543 43.2174C61.8543 44.1659 62.1892 44.9773 62.8591 45.6518C63.5291 46.3051 64.356 46.6318 65.3399 46.6318ZM61.446 55.1994H69.1396C69.5374 55.1994 69.8828 55.0519 70.1759 54.7568C70.469 54.4617 70.6155 54.1034 70.6155 53.6819C70.6155 53.2604 70.469 52.9126 70.1759 52.6386C69.8828 52.3435 69.5374 52.196 69.1396 52.196H61.446C61.0273 52.196 60.6714 52.3435 60.3783 52.6386C60.0853 52.9337 59.9387 53.2815 59.9387 53.6819C59.9387 54.1034 60.0853 54.4617 60.3783 54.7568C60.6714 55.0519 61.0273 55.1994 61.446 55.1994Z" fill="black"/>
</svg>
